<svg xmlns="http://www.w3.org/2000/svg" viewBox="0 0 259.48 81.66"><defs><style>.cls-1{fill:#fff;}.cls-2{fill:#1e407c;}.cls-3{fill:#96bee6;}</style></defs><title>psu-mark</title><g id="Layer_2" data-name="Layer 2"><g id="Layer_1-2" data-name="Layer 1"><path class="cls-1" d="M37,81.66C20.64,71.92,0,57.78,0,32.8V6.43C7.55,3.57,19.21,0,37,0,55,0,67.35,3.89,74,6.43V32.8C74,58,52.57,72.5,37,81.66Z"/><path class="cls-2" d="M48.14,47.5c0-.56.46-1.43.46-2.2s-1.13-1.22-2-1.34c-1.85-.26-2.47-.17-2.47-.58s.25-.58.59-1.06A3.49,3.49,0,0,1,47,41.25,19.22,19.22,0,0,1,49.87,41a16.18,16.18,0,0,1,2.77.27c1.13.2,1.31.67,1.31,1.2V43c0,.54-.44.82-1.23,1l-.61.12c-.57.12-1.28.23-1.53,1-.54,1.55-1.48,2.77-2.18,2.74C48.27,47.82,48.14,47.73,48.14,47.5Zm1.63-25c-.07,0-.31-.13-.31-.37s.2-.55.6-1.09c.93-1.24,2.2-2.77,2.67-2.77.23,0,.37.16.65.69a3.13,3.13,0,0,1,.31,1.35,6.92,6.92,0,0,1-1.45,4.12A12.16,12.16,0,0,0,49.77,22.45ZM22.58,25.53c.42,0,.74-.28,1.36-1,1.41-1.56,2.77-1.77,2.77-2.43a1.81,1.81,0,0,0-.39-.9,58,58,0,0,1-3-5.3c-.32-.62-.74-1-1.07-1-.51,0-1.06.6-1.38,1.12A4.85,4.85,0,0,0,20,18.32a16.23,16.23,0,0,0,.75,4.52C21.21,24.27,21.94,25.53,22.58,25.53Zm16.9,5.41a2.82,2.82,0,0,0-3-2.38,3.66,3.66,0,0,0-3.31,2.26,3.42,3.42,0,0,0,2.41,2.1c.22.07.43.07.43.26s-.27.39-.85.39a4.17,4.17,0,0,1-3.41-1.39,13.24,13.24,0,0,1-1.71.28c-.56,0-.81-.36-.81-.86a2.51,2.51,0,0,1,.28-1.07l.3-.6a5.49,5.49,0,0,1,2.4-2.76l1-.57A4.88,4.88,0,0,1,36,25.91h.83a3.6,3.6,0,0,1,2.63.89c1.21,1,1.88,1.57,1.88,2.32a3.37,3.37,0,0,1-.72,2.37,3,3,0,0,1-2,1.26c-.15,0-.2-.09-.2-.17s.13-.17.26-.28A3.11,3.11,0,0,0,39.48,30.94Zm8.13,25.94a15.15,15.15,0,0,1-3.71.23c-4.2,0-4.91-1-4.91-1.85,0-1.37,6-2.33,8.39-2.33s3.28.73,3.28,1.29S49.63,56.39,47.61,56.88ZM23.38,69.17A132,132,0,0,0,37,78.33h0c0-4.11-.09-6.54,2.69-9.45L43,65.41c.79-.82,1.43-1.43,1.81-1.43s.38.14.38.5a8.42,8.42,0,0,0,1,3.33,4.17,4.17,0,0,0,3.07,2.38c11.93-9,21.9-20.73,21.9-37.45V8.38c-2.94-1-15-5.63-34.2-5.63S5.75,7.38,2.8,8.38V32.74A38.63,38.63,0,0,0,7.91,52.1c.31-3.39,2.6-5,2.6-8.32,0-2.32-.66-3.78-.66-5.73,0-3.51,4.75-10.73,7.21-13.68.07-.08.23-.29.43-.29a.5.5,0,0,1,.41.29c.25.38.36.58.63.58s.37-.15.37-.39a20.66,20.66,0,0,1-.7-5.62c0-2.79.64-3.38,2.38-5.08a3.86,3.86,0,0,1,2.21-1.25c1,0,1.54.61,2.18,1.26,1.07,1.09,2.57,3,2.81,3.33a.34.34,0,0,0,.28.16c.49,0,.91-.15,3.06-.15A51.38,51.38,0,0,1,44,18.82a21.93,21.93,0,0,0,2.3.86c.2,0,.22-.13.22-.23s-.42-.52-.42-.79a.46.46,0,0,1,.29-.38c2.26-1.22,4.2-2.14,6-2.14,1,0,1.54.89,2,1.77a6,6,0,0,1,.7,2.56,7.89,7.89,0,0,1-1.64,4.88c.35.36.84.9,1.14,1.26A4,4,0,0,1,55.67,29a8.06,8.06,0,0,1-.29,1.43c0,.21-.23.63-.59.62s-.42-.36-.43-.68v-.24a3.67,3.67,0,0,0-3.09-3.58H51a3.11,3.11,0,0,0-2.42,1,2.32,2.32,0,0,0-.75,1.7,4.78,4.78,0,0,0,.67,1.69c.23.45.81,1.53,1.12,2.08a1.14,1.14,0,0,0,1,.65c1,0,1.83-.13,1.83-.42,0-.08-.05-.15-.18-.15H52c-1.28,0-2-1.62-2.59-3.09a2.7,2.7,0,0,1,2-1,2,2,0,0,1,2.1,2,3,3,0,0,1-.27,1.22.53.53,0,0,0-.07.23c0,.17.21.21.56.29l.5.12a1.48,1.48,0,0,1,.94.88l.42,1.15a8,8,0,0,1,.55,2.64,7.77,7.77,0,0,1-.38,2.58,14.61,14.61,0,0,0-.63,2.79,4.57,4.57,0,0,1,.21.46,5.59,5.59,0,0,1,.5,2.21v.75a5.62,5.62,0,0,1-1.21,3.42c-.48.66-1.18,1.59-1.58,2.1a1.35,1.35,0,0,1-1,.54,2.58,2.58,0,0,1-.63-.12l-1-.25A2,2,0,0,1,49,50.45l-.21-.53c-.21-.52-.32-.86-.65-.86s-.47.16-.71.52a3.9,3.9,0,0,1-2.81,2.12c-.53.13-1.59.35-2.18.48A20.2,20.2,0,0,1,39,52.8l-.6,0a4.65,4.65,0,0,1-3.63-2.09c-2.11-2.51-1.89-2.87-2-6.27,0-.38-.14-.85-.53-.85s-.51.72-.64,1.74c-.15,1.2-.43,2.45-1,2.45a4,4,0,0,1-1.32-.27l-3.68-1.23c-1.36-.45-2.67-.81-3.2-2l-.94-2.18c-.16-.39-.28-.59-.53-.59s-.45.43-.49.77-.14,1.28-.19,1.83a7.69,7.69,0,0,1-1.68,4.7c-.46.6-.9,1.22-1.4,1.89a7.94,7.94,0,0,0-1.65,5.51c0,.18,0,1.18,0,1.65C15.6,61.82,16.62,63.78,23.38,69.17Z"/><path class="cls-3" d="M55.17,33.7h0l.42,1.15a8,8,0,0,1,.55,2.64,7.77,7.77,0,0,1-.38,2.58,14.61,14.61,0,0,0-.63,2.79c-.11-.23-2.17-3.78-2.32-4.07a1.81,1.81,0,0,1-.29-.9c0-.36.15-.58.59-.86.26-.16.61-.36.84-.48a2,2,0,0,0,1.31-1.93A5.85,5.85,0,0,0,55.17,33.7Zm-9,5.68a2.56,2.56,0,0,1,.2.83,1.21,1.21,0,0,1-.42,1c-.18.15-.38.32-.55.49a1.89,1.89,0,0,0-.73.6c-.34.48-.59.78-.59,1.06a.24.24,0,0,0,.09.2,1.45,1.45,0,0,1-.57-1.18c0-.38.12-.57.12-.92a2.76,2.76,0,0,0-.13-.76c-.57-1.91-1.53-4.18-2.13-5.72s-1.07-2.44-1.75-2.44c-.38,0-.72.19-1.12.19a3,3,0,0,0,2-1.26,3.37,3.37,0,0,0,.72-2.37,1.55,1.55,0,0,0-.43-1,11.38,11.38,0,0,1,2,3.24C44.16,34.08,45.27,37.06,46.21,39.38ZM15.51,57.81c0-.47,0-1.47,0-1.65a7.94,7.94,0,0,1,1.65-5.51c.5-.67.94-1.29,1.4-1.89a7.69,7.69,0,0,0,1.68-4.7c.05-.55.14-1.44.19-1.83s.12-.77.49-.77.37.2.53.59l.94,2.18c.53,1.21,1.84,1.57,3.2,2l3.68,1.23a4,4,0,0,0,1.32.27c.59,0,.87-1.25,1-2.45.13-1,.28-1.74.64-1.74s.52.47.53.85c.13,3.4-.09,3.76,2,6.27a4.65,4.65,0,0,0,3.63,2.09,1.71,1.71,0,0,1-1-1.78V49.77a4.72,4.72,0,0,1,.37-1.94c.15-.33.31-.93.47-1.29a2,2,0,0,0,.14-1.22,7.09,7.09,0,0,0-.52-2c-.19-.57-.44-1.4-.69-2.08-.76-2.13-1.07-2.63-3.62-3l-5.14-.72c-2.86-.41-5.1-.54-6.26-2.46C20.74,32.76,20.89,30,19.55,30c-.64,0-1,.71-1,1.75s.42,2.85.42,5.92c0,2.65-.25,3.38-1.8,5.34-.4.5-.94,1.25-1.28,1.68-1.15,1.44-1.66,2.26-1.59,3.94A56.83,56.83,0,0,0,15.51,57.81ZM44.67,68c.09-1.07.56-2.84.56-3.56h0c0-.36-.12-.5-.38-.5s-1,.61-1.81,1.43L39.7,68.88c-2.78,2.91-2.65,5.34-2.69,9.45h0c3.09-1.86,5.92-3.66,8-5.09A16.28,16.28,0,0,1,44.67,68Z"/><path class="cls-1" d="M246.88,33.53h12.6c-.06-6.48-3.18-10.2-8.58-10.2S242,27,242,32.7c0,2.16.71,9.2,9.75,9.2a16.52,16.52,0,0,0,6.5-1.08V37.46a13.56,13.56,0,0,1-5.42,1.06C249.3,38.52,247,36.49,246.88,33.53Zm-17.83-6.61h2.45V37c0,3,2.18,4.92,5.7,4.92a15.75,15.75,0,0,0,3.8-.53V38.28a11.06,11.06,0,0,1-2,.24c-2.18,0-3-.94-3-3.36V26.92h4.84V23.75H236V19.87H231.5v3.88h-2.45Zm-13.54.16a10,10,0,0,1,3-.57c2.65,0,3.83,1.12,3.83,3.63v1.05h-2.35c-5.95,0-9.1,1.95-9.1,5.63,0,3.09,2.31,5.08,5.88,5.08A6.66,6.66,0,0,0,222.59,39h.13l.14,2.47h5.51V38.31H226.5v-8c0-4.6-2.72-6.94-8.1-6.94a15,15,0,0,0-6.69,1.8v4.32h3.8Zm-18.19-.16h2.46V37c0,3,2.18,4.92,5.69,4.92a15.86,15.86,0,0,0,3.81-.53V38.28a11.66,11.66,0,0,1-2,.24c-2.18,0-3-.94-3-3.36V26.92h4.84V23.75h-4.84V19.87h-4.49v3.88h-2.46ZM182.26,37.59V34.51H178V40.6a23.84,23.84,0,0,0,8.07,1.3c6,0,9.32-2.67,9.32-7.52s-3.62-6.28-7-7.18L186,26.57c-2-.49-3-1.55-3-3.13s1.27-3.06,4.12-3.06a8.94,8.94,0,0,1,3,.62v2.91h4.22V18.43a21.64,21.64,0,0,0-7.38-1.22c-5.73,0-8.89,2.38-8.89,6.71,0,3.87,1.8,5.93,6.21,7.12l2.07.57c2.89.78,4.07,1.83,4.07,3.62,0,2-1.41,3.08-4,3.08A18.46,18.46,0,0,1,182.26,37.59Zm-66.37-4.06h12.6c-.05-6.48-3.17-10.2-8.57-10.2S111,27,111,32.7c0,2.16.7,9.2,9.75,9.2a16.56,16.56,0,0,0,6.5-1.08V37.46a13.57,13.57,0,0,1-5.43,1.06C118.32,38.52,116,36.49,115.89,33.53Zm27.27,8h8.53V38.31h-2.07V30.37c0-4.28-2.68-7-6.83-7a6.49,6.49,0,0,0-5.68,2.79H137l-.14-2.37h-6.3v3.17h2.36V38.31h-2v3.18h8.54V38.31H137.4V31.2c0-2.59,1.41-4.07,3.85-4.07s3.88,1.48,3.88,4.07v7.11h-2Zm-52.94,0h9.47V38.31H97.31V32.15h3.85c5.46,0,8.72-2.72,8.72-7.26s-3.26-7.26-8.72-7.26H90.22V20.8h2.39V38.31H90.22Zm128-2.76c-2.09,0-2.84-1.27-2.84-2.36,0-1.8,1.61-2.56,5.37-2.56h1.53V34C222.23,37.24,220.13,38.73,218.17,38.73Zm28.66-8.17c.17-2.58,1.66-4.26,3.9-4.26,2.41,0,3.85,1.53,3.85,4.09v.17Zm-131,0c.21-2.68,1.65-4.26,3.9-4.26,2.41,0,3.84,1.53,3.84,4.09v.17ZM100.64,29H97.31V20.8h3.26c2.73,0,4.42,1.57,4.42,4.09S103.33,29,100.64,29Zm65.67,12.52h8.54V38.31h-2.08V30.37c0-4.28-2.68-7-6.82-7a6.53,6.53,0,0,0-5.69,2.79h-.11L160,23.75h-6.3v3.17h2.35V38.31h-2v3.18h8.53V38.31h-2.07V31.2c0-2.59,1.4-4.07,3.85-4.07s3.87,1.48,3.87,4.07v7.11h-2Z"/></g></g></svg>